<?xml version="1.0" encoding="UTF-8" standalone="no"?>
<!-- Created with Inkscape (http://www.inkscape.org/) -->

<svg
   width="210mm"
   height="210mm"
   viewBox="0 0 210 210"
   version="1.1"
   id="svg1"
   sodipodi:docname="manifold2_glow.svg"
   xml:space="preserve"
   inkscape:version="1.4.2 (2aeb623e1d, 2025-05-12)"
   xmlns:inkscape="http://www.inkscape.org/namespaces/inkscape"
   xmlns:sodipodi="http://sodipodi.sourceforge.net/DTD/sodipodi-0.dtd"
   xmlns="http://www.w3.org/2000/svg"
   xmlns:svg="http://www.w3.org/2000/svg"><sodipodi:namedview
     id="namedview1"
     pagecolor="#505050"
     bordercolor="#eeeeee"
     borderopacity="1"
     inkscape:showpageshadow="0"
     inkscape:pageopacity="0"
     inkscape:pagecheckerboard="0"
     inkscape:deskcolor="#505050"
     inkscape:document-units="mm"
     inkscape:zoom="0.50583233"
     inkscape:cx="524.87748"
     inkscape:cy="172.98222"
     inkscape:window-width="1920"
     inkscape:window-height="1011"
     inkscape:window-x="0"
     inkscape:window-y="0"
     inkscape:window-maximized="1"
     inkscape:current-layer="layer1" /><defs
     id="defs1"><filter
       style="color-interpolation-filters:sRGB;"
       inkscape:label="Blur"
       id="filter1"
       x="-0.39425428"
       y="-0.33480003"
       width="1.7885086"
       height="1.6696001"><feGaussianBlur
         stdDeviation="20 20"
         result="blur"
         id="feGaussianBlur1" /></filter><filter
       style="color-interpolation-filters:sRGB;"
       inkscape:label="Blur"
       id="filter2"
       x="-0.43504885"
       y="-0.38383689"
       width="1.8700977"
       height="1.7676738"><feGaussianBlur
         stdDeviation="20 20"
         result="blur"
         id="feGaussianBlur2" /></filter><filter
       style="color-interpolation-filters:sRGB;"
       inkscape:label="Blur"
       id="filter3"
       x="-0.098563569"
       y="-0.083700004"
       width="1.1971271"
       height="1.1674"><feGaussianBlur
         stdDeviation="5 5"
         result="blur"
         id="feGaussianBlur3" /></filter><filter
       style="color-interpolation-filters:sRGB;"
       inkscape:label="Blur"
       id="filter4"
       x="-0.10876222"
       y="-0.095959221"
       width="1.2175244"
       height="1.1919184"><feGaussianBlur
         stdDeviation="5 5"
         result="blur"
         id="feGaussianBlur4" /></filter></defs><g
     inkscape:label="Layer 1"
     inkscape:groupmode="layer"
     id="layer1"><path
       id="path1-4"
       style="fill:#41fefe;fill-opacity:1;stroke-width:1.69504;filter:url(#filter2)"
       d="m 137.24993,48.909083 a 64.806009,64.806009 0 0 1 19.2794,46.121258 64.806009,64.806009 0 0 1 -64.805756,64.805769 64.806009,64.806009 0 0 1 -23.876542,-4.55873 64.806009,64.806009 0 0 0 45.526348,18.68482 64.806009,64.806009 0 0 0 64.80609,-64.80575 64.806009,64.806009 0 0 0 -40.92954,-60.247367 z"
       transform="matrix(0.85602726,0,0,0.85602726,14.256395,16.268552)" /><path
       id="path1-6-1"
       style="fill:#ef018f;fill-opacity:1;stroke-width:1.95424;filter:url(#filter1)"
       d="M 109.11159,30.771556 A 74.716049,74.716049 0 0 0 34.395832,105.48769 74.716049,74.716049 0 0 0 79.629264,174.14072 74.716049,74.716049 0 0 1 51.946597,116.08601 74.716049,74.716049 0 0 1 126.66235,41.369879 74.716049,74.716049 0 0 1 156.14467,47.432607 74.716049,74.716049 0 0 0 109.11159,30.771556 Z"
       transform="matrix(0.85602726,0,0,0.85602726,14.256395,16.268552)" /><path
       id="path1"
       style="fill:#bffffb;fill-opacity:1;stroke-width:1.451"
       d="m 131.78098,58.147881 a 55.47571,55.47571 0 0 1 16.5037,39.481062 55.47571,55.47571 0 0 1 -55.475502,55.475487 55.47571,55.47571 0 0 1 -20.438965,-3.90239 55.47571,55.47571 0 0 0 38.971787,15.99472 55.47571,55.47571 0 0 0 55.47578,-55.4755 55.47571,55.47571 0 0 0 -35.0368,-51.573379 z" /><path
       id="path1-61"
       style="fill:#f9f9f9;fill-opacity:0.666667;stroke-width:1.69504;filter:url(#filter4)"
       d="m 136.68415,48.34941 a 64.806009,64.806009 0 0 1 19.2794,46.121271 64.806009,64.806009 0 0 1 -64.805756,64.805759 64.806009,64.806009 0 0 1 -23.876533,-4.55873 64.806009,64.806009 0 0 0 45.526339,18.68482 64.806009,64.806009 0 0 0 64.80609,-64.80575 64.806009,64.806009 0 0 0 -40.92954,-60.24737 z"
       transform="matrix(0.85602726,0,0,0.85602726,14.256395,16.268552)" /><path
       id="path1-6"
       style="fill:#ff00fe;fill-opacity:1;stroke-width:1.67288"
       d="m 107.81055,42.89147 a 63.958975,63.958975 0 0 0 -63.958727,63.95905 63.958975,63.958975 0 0 0 38.721051,58.76886 63.958975,63.958975 0 0 1 -23.697118,-49.69641 63.958975,63.958975 0 0 1 63.958724,-63.959046 63.958975,63.958975 0 0 1 25.23767,5.18986 63.958975,63.958975 0 0 0 -40.2616,-14.262314 z" /><path
       id="path1-6-10"
       style="fill:#f9f9f9;fill-opacity:1;stroke-width:1.95424;filter:url(#filter3)"
       d="M 109.16485,30.848651 A 74.716049,74.716049 0 0 0 34.449092,105.56479 74.716049,74.716049 0 0 0 79.682524,174.21782 74.716049,74.716049 0 0 1 51.999857,116.16311 74.716049,74.716049 0 0 1 126.71561,41.446974 74.716049,74.716049 0 0 1 156.19793,47.509702 74.716049,74.716049 0 0 0 109.16485,30.848651 Z"
       transform="matrix(0.85602726,0,0,0.85602726,14.256395,16.268552)" /></g></svg>
