<svg xml:space="preserve" xmlns="http://www.w3.org/2000/svg" viewBox="0 0 512 512"><g stroke-width="1.5"><path d="M256.6 4.5c-24.3 0-48.3 7.6-68.7 21.5-32.9 22.3-56.5 61-58.1 111s18.7 110.6 72.4 177.8l11.5-9.2C161.5 240.2 143 183 144.4 137.4s22.8-79.6 51.7-99.2 65.6-24.9 98.2-11.9c30.8 12.3 58.5 40.7 72.9 90.4a164 164 0 0 1 15.3.4C367.6 61.3 336 27 299.7 12.6q-21.2-8.2-43.1-8.1" overflow="visible"/><path d="M261.3 57a69 69 0 0 0-56.6 27.2c-33.6 41-37 121.2 43.6 199.8l10.3-10.5A219 219 0 0 1 207 201q-3-7.5-5.2-14.6c-11.5-39.3-2.5-72.5 14.2-92.8 14-17.1 33-25 51-20.9 17.4 4 35.3 19.2 47.1 52.7q7.2-2.2 14.3-3.7c-13-37.4-34.6-58-58.2-63.3q-4.5-1-9-1.3" overflow="visible"/><path d="M381.5 131c-49.6-2.7-111.1 17.6-181.6 73.1l9 11.5c68.7-54 126.8-72.3 171.8-70 45 2.4 77.3 25.1 95.5 55.4 18.1 30.3 21.8 68 8.4 100-12.8 30.9-41 56.8-89.1 66.3q.1 7.8-.3 15c53.9-9.8 88-39.6 103-75.6 15.3-36.6 11-79.1-9.5-113.3A130 130 0 0 0 381.5 131" overflow="visible"/><path d="M370.6 183q-6.2.1-12.6 1c-34.6 4.4-77 24.5-126.5 68.2l9.8 11c27.1-24 51.8-40.3 73.6-50.6q7.1-3.5 13.9-6 16.9-6.2 31-8c30.5-4 51.5 6 64 21a57 57 0 0 1 10 53.9C428 291.3 413.2 307 386 313q2.2 7.2 4 14.1c30.8-7.2 50.4-26.6 57.8-49 7.6-23 3-48.9-12.8-67.9-13.7-16.6-36-27.7-64.4-27.2" overflow="visible"/><path d="M147.5 397.2q-7.7-.2-15.2-1.2c10.3 53.9 40 88 75.8 102.9 36.4 15.2 78.5 11 112.4-9.4a131 131 0 0 0 62.7-106.7c3-49.2-16.1-110.3-69.8-180.1l-11.6 9c52.2 67.8 69.5 125.5 66.7 170.2a116 116 0 0 1-55.6 95 111 111 0 0 1-99.2 8.4c-30.3-12.7-56-40.6-66.2-88" overflow="visible"/><path d="M124.7 200.8q-2.2-7.1-3.9-14.1c-35.8 11-55.8 32-60.9 55.4-5.2 23.8 5 48.6 24.8 65.6 39.6 34 118 37 197.4-49.7l-10.8-9.9c-76.1 83-144.3 76.5-177 48.5-16.5-14-24-33.5-20-51.3 3.8-17.4 18.4-34.5 50.4-44.5" overflow="visible"/><path d="M262.1 233.8 252 244.3a232 232 0 0 1 52.4 72.4q3.2 7.4 5.4 14.6c12 38.7 2.7 70.2-13.8 89.2-14 15.9-33 23-50.5 18.8-17-3.9-33.7-18.2-43.9-48.8q-7.2 2-14.3 3.3c11.2 34.9 32 54.5 54.8 59.9 23.5 5.4 48-4.2 65-23.5 33.7-38.7 37.4-116-44.9-196.4" overflow="visible"/><path d="M115.1 145.8q-.1-7.9.3-15.5c-57.2 17.8-90.9 50.9-104 88-13.6 38-5.5 79.5 18.3 111.5 23.7 32 63.3 54.6 112.5 55.4 49 .7 107.4-20.3 169.3-74.1l-9.7-11.1c-59.8 52-114.7 71.2-159.4 70.5s-79.8-21-101-49.4c-21-28.5-28-64.8-16.2-98 11.1-31.3 39-60.4 90-77.3" overflow="visible"/><path d="M163 251.5s-17.7 23.8-29.2 66.1l14.1 4c11-40.2 27-61.3 27-61.3zm26.6-117.3V149c1.3 0 6.2.9 11.9 2.6a207 207 0 0 1 56.4 27.6l9.5-11.3a167 167 0 0 0-40.6-22.7c-7.4-3.1-14.7-5.8-21-7.7s-11.5-3.2-16.2-3.2M260 342.5l-10.6 12a190 190 0 0 0 70.2 27.6l2.2-14.5a161 161 0 0 1-61.7-25.1M387 191.7l-14.6 1c0 1.4-.7 6-2.6 11.5s-5 12-8.3 18.6a190 190 0 0 1-22 33.8l11 9.8a196 196 0 0 0 24-36.9q5.6-10.7 9.1-20.3a44 44 0 0 0 3.5-17.5" overflow="visible"/></g></svg>