<?xml version="1.0" encoding="UTF-8" standalone="no"?>
<!-- Created with Inkscape (http://www.inkscape.org/) -->

<svg
   width="210mm"
   height="210mm"
   viewBox="0 0 210 210"
   version="1.1"
   id="svg1"
   inkscape:version="1.4.2 (2aeb623e1d, 2025-05-12)"
   sodipodi:docname="manifold2.svg"
   xmlns:inkscape="http://www.inkscape.org/namespaces/inkscape"
   xmlns:sodipodi="http://sodipodi.sourceforge.net/DTD/sodipodi-0.dtd"
   xmlns="http://www.w3.org/2000/svg"
   xmlns:svg="http://www.w3.org/2000/svg">
  <sodipodi:namedview
     id="namedview1"
     pagecolor="#505050"
     bordercolor="#eeeeee"
     borderopacity="1"
     inkscape:showpageshadow="0"
     inkscape:pageopacity="0"
     inkscape:pagecheckerboard="0"
     inkscape:deskcolor="#505050"
     inkscape:document-units="mm"
     inkscape:zoom="0.50583233"
     inkscape:cx="329.16046"
     inkscape:cy="293.57554"
     inkscape:window-width="1920"
     inkscape:window-height="1011"
     inkscape:window-x="0"
     inkscape:window-y="0"
     inkscape:window-maximized="1"
     inkscape:current-layer="layer1" />
  <defs
     id="defs1" />
  <g
     inkscape:label="Layer 1"
     inkscape:groupmode="layer"
     id="layer1">
    <path
       id="path1"
       style="fill:#1a1a1a;stroke-width:2.2949"
       d="m 142.68251,27.507632 a 87.740397,87.740397 0 0 1 26.10225,62.443256 87.740397,87.740397 0 0 1 -87.740059,87.740052 87.740397,87.740397 0 0 1 -32.326274,-6.17203 87.740397,87.740397 0 0 0 61.637803,25.29725 87.740397,87.740397 0 0 0 87.7405,-87.74005 87.740397,87.740397 0 0 0 -55.41422,-81.568478 z" />
    <path
       id="path1-6"
       style="fill:#1a1a1a;stroke-width:2.64583"
       d="M 104.77087 3.3780884 A 101.15753 101.15753 0 0 0 3.6137329 104.53574 A 101.15753 101.15753 0 0 0 64.854956 197.48459 A 101.15753 101.15753 0 0 1 27.37559 118.88473 A 101.15753 101.15753 0 0 1 128.53272 17.727083 A 101.15753 101.15753 0 0 1 168.44863 25.935368 A 101.15753 101.15753 0 0 0 104.77087 3.3780884 z " />
  </g>
</svg>
